# xmcd
#
# Track frame offsets:
#	150
#	18532
#	36027
#	49816
#	67674
#	87183
#	100379
#	117544
#	135989
#	145472
#	165062
# Disc length: 2429 seconds
# Revision: 1
# Processed by: cddbd v1.5.2PL0 Copyright (c) Steve Scherf et al.
#
# Submitted via: libkcddb 0.21
#
DISCID=89097b0b
DTITLE=Joy Kills Sorrow - Joy Kills Sorrow
DYEAR=2006
DGENRE=Bluegrass
TTITLE0=Fall on my Knees
TTITLE1=I Still Miss Someone
TTITLE2=You Made It Easy
TTITLE3=Louise
TTITLE4=Land of Lost Grasses
TTITLE5=My Jury's Still Out On You
TTITLE6=Liza Jane
TTITLE7=Weary Blues from Waitin'
TTITLE8=1216 Two Step
TTITLE9=Train On The Island
TTITLE10=Spring
EXTD=http://www.joykillssorrow.com/
EXTT0=
EXTT1=
EXTT2=
EXTT3=
EXTT4=
EXTT5=
EXTT6=
EXTT7=
EXTT8=
EXTT9=
EXTT10=
PLAYORDER=
